<svg width="216" height="62" viewBox="0 0 216 62" fill="none" xmlns="http://www.w3.org/2000/svg">
<path d="M97.4 6C98.1 6 98.6 6.1 99.1 6.3C99.6 6.5 100.1 6.9 100.6 7.4L101.8 6.1C100.6 4.8 99.1 4.2 97.4 4.2C95.6 4.2 94.2 4.8 93 5.9C91.8 7 91.3 8.4 91.3 10.1C91.3 11.8 91.9 13.2 93 14.3C94.1 15.4 95.6 16 97.3 16C99 16 100.5 15.3 101.7 14L100.5 12.7C100 13.2 99.5 13.5 99 13.8C98.5 14 98 14.1 97.3 14.1C96.2 14.1 95.3 13.7 94.5 12.9C93.7 12.1 93.3 11.2 93.3 10C93.3 8.8 93.7 7.9 94.5 7.2C95.3 6.3 96.2 6 97.4 6Z" fill="#5F6063"/>
<path d="M115.9 4.1C114.2 4.1 112.8 4.7 111.6 5.8C110.4 6.9 109.9 8.3 109.9 10C109.9 11.7 110.5 13.1 111.6 14.2C112.7 15.3 114.2 15.9 115.9 15.9C117.6 15.9 119 15.3 120.2 14.2C121.4 13.1 121.9 11.7 121.9 10C121.9 8.3 121.3 6.9 120.2 5.8C119 4.7 117.6 4.1 115.9 4.1ZM118.7 12.9C117.9 13.7 117 14.1 115.8 14.1C114.6 14.1 113.7 13.7 112.9 12.9C112.1 12.1 111.7 11.1 111.7 10C111.7 8.9 112.1 7.9 112.9 7.1C113.7 6.3 114.6 5.9 115.8 5.9C117 5.9 117.9 6.3 118.7 7.1C119.5 7.9 119.9 8.9 119.9 10C119.9 11.1 119.5 12.1 118.7 12.9Z" fill="#5F6063"/>
<path d="M143.7 15.8V4.4H140.8L137.3 11.5L133.9 4.4H130.9V15.8H132.8V6.9L136.8 14.8H137.9L141.8 6.9V15.8H143.7Z" fill="#5F6063"/>
<path d="M163 8.4C163 7 162.6 6 161.8 5.3C161 4.6 159.7 4.3 158 4.3H154.1V15.7H156V12.4H158C159.7 12.4 160.9 12.1 161.7 11.4C162.6 10.8 163 9.8 163 8.4ZM160.5 10.1C160.1 10.5 159.4 10.7 158.3 10.7H156.1V6.1H158.1C159.1 6.1 159.9 6.3 160.4 6.6C160.9 6.9 161.1 7.5 161.1 8.3C161 9.1 160.9 9.6 160.5 10.1Z" fill="#5F6063"/>
<path d="M179.6 13.9H174.4V4.4H172.5V15.8H179.6V13.9Z" fill="#5F6063"/>
<path d="M197.2 13.9H190.9V10.9H196.4V9.2H190.9V6.2H197V4.4H189V15.8H197.2V13.9Z" fill="#5F6063"/>
<path d="M212.1 9.9L215.7 4.4H213.4L210.8 8.2H210.7L208.2 4.4H205.8L209.4 9.9L205.5 15.8H207.9L210.7 11.5H210.8L213.6 15.8H216L212.1 9.9Z" fill="#5F6063"/>
<path d="M96.6 30.1C95.4 29.8 94.7 29.6 94.3 29.3C93.9 29.1 93.8 28.7 93.8 28.2C93.8 27.7 94 27.4 94.3 27.2C94.7 27 95.1 26.9 95.7 26.9C96.3 26.9 96.8 27 97.4 27.2C98 27.4 98.4 27.6 98.8 28L99.8 26.5C99.3 26.1 98.7 25.7 98 25.5C97.3 25.3 96.6 25.1 95.8 25.1C94.7 25.1 93.7 25.4 93 26C92.2 26.6 91.8 27.4 91.8 28.4C91.8 29.4 92.1 30.2 92.8 30.7C93.1 31 93.5 31.2 94 31.4C94.4 31.6 95.1 31.8 95.9 31.9C96.7 32.1 97.3 32.3 97.7 32.6C98 32.8 98.2 33.2 98.2 33.6C98.2 34 98 34.4 97.6 34.7C97.2 35 96.8 35.1 96.1 35.1C94.9 35.1 93.7 34.6 92.5 33.6L91.3 35C92.7 36.2 94.3 36.8 96 36.8C97.2 36.8 98.2 36.5 98.9 35.9C99.6 35.3 100 34.5 100 33.5C100 32.5 99.7 31.8 99.1 31.3C98.7 30.8 97.8 30.4 96.6 30.1Z" fill="#5F6063"/>
<path d="M111.1 36.8H113.1V32.3L117.3 25.4H115.2L112.1 30.6L109 25.4H106.9L111.1 32.3V36.8Z" fill="#5F6063"/>
<path d="M131.2 34.7C130.8 35 130.3 35.1 129.7 35.1C128.5 35.1 127.3 34.6 126.1 33.6L124.9 35.1C126.3 36.3 127.9 36.9 129.6 36.9C130.8 36.9 131.8 36.6 132.5 36C133.2 35.4 133.6 34.6 133.6 33.6C133.6 32.6 133.3 31.9 132.7 31.4C132.1 30.9 131.2 30.5 130.1 30.2C129 29.9 128.2 29.7 127.8 29.4C127.4 29.2 127.3 28.8 127.3 28.3C127.3 27.8 127.5 27.5 127.8 27.3C128.2 27.1 128.6 27 129.2 27C129.8 27 130.3 27.1 130.9 27.3C131.5 27.5 131.9 27.7 132.3 28.1L133.3 26.6C132.8 26.2 132.2 25.8 131.4 25.6C130.6 25.4 130 25.2 129.2 25.2C128.1 25.2 127.1 25.5 126.4 26.1C125.6 26.7 125.2 27.5 125.2 28.5C125.2 29.5 125.5 30.3 126.2 30.8C126.5 31.1 126.9 31.3 127.4 31.5C127.8 31.7 128.5 31.9 129.3 32C130.1 32.2 130.7 32.4 131.1 32.7C131.4 32.9 131.6 33.3 131.6 33.7C131.7 34.1 131.6 34.4 131.2 34.7Z" fill="#5F6063"/>
<path d="M142.3 27.1H145.7V36.8H147.7V27.1H151.1V25.4H142.3V27.1Z" fill="#5F6063"/>
<path d="M168.6 35H162.4V31.9H167.8V30.2H162.4V27.2H168.4V25.4H160.4V36.8H168.6V35Z" fill="#5F6063"/>
<path d="M184.8 32.5L181.3 25.4H178.3V36.8H180.2V27.9L184.2 35.8H185.3L189.2 27.9V36.8H191.2V25.4H188.2L184.8 32.5Z" fill="#5F6063"/>
<path d="M205.9 30.1C204.7 29.8 204 29.6 203.6 29.3C203.2 29.1 203.1 28.7 203.1 28.2C203.1 27.7 203.3 27.4 203.6 27.2C204 27 204.4 26.9 205 26.9C205.6 26.9 206.1 27 206.7 27.2C207.3 27.4 207.7 27.6 208.1 28L209.1 26.5C208.6 26.1 208 25.7 207.2 25.5C206.5 25.3 205.8 25.1 205 25.1C203.9 25.1 202.9 25.4 202.2 26C201.4 26.6 201.1 27.4 201.1 28.4C201.1 29.4 201.4 30.2 202.1 30.7C202.4 31 202.8 31.2 203.3 31.4C203.7 31.6 204.4 31.8 205.2 31.9C206 32.1 206.6 32.3 207 32.6C207.3 32.8 207.5 33.2 207.5 33.6C207.5 34 207.3 34.4 206.9 34.7C206.5 35 206 35.1 205.4 35.1C204.2 35.1 203 34.6 201.8 33.6L200.6 35.1C202 36.3 203.6 36.9 205.3 36.9C206.5 36.9 207.5 36.6 208.2 36C208.9 35.4 209.3 34.6 209.3 33.6C209.3 32.6 209 31.9 208.4 31.4C208 30.8 207.1 30.4 205.9 30.1Z" fill="#5F6063"/>
<path d="M96.6 51.1C95.4 50.8 94.7 50.6 94.3 50.3C93.9 50 93.8 49.7 93.8 49.2C93.8 48.7 94 48.4 94.3 48.2C94.6 48 95.1 47.9 95.7 47.9C96.3 47.9 96.8 48 97.4 48.2C98 48.4 98.4 48.6 98.8 49L99.8 47.5C99.3 47.1 98.7 46.7 97.9 46.5C97.2 46.3 96.5 46.1 95.7 46.1C94.6 46.1 93.6 46.4 92.9 46.9C92.1 47.5 91.7 48.3 91.7 49.3C91.7 50.3 92 51.1 92.7 51.6C93 51.9 93.4 52.1 93.9 52.3C94.4 52.5 95 52.6 95.8 52.8C96.6 53 97.2 53.2 97.6 53.5C97.9 53.7 98.1 54.1 98.1 54.5C98.1 54.9 97.9 55.3 97.6 55.6C97.3 55.9 96.7 56 96.1 56C94.9 56 93.7 55.5 92.5 54.5L91.3 56C92.7 57.2 94.3 57.8 96 57.8C97.2 57.8 98.2 57.5 98.9 56.9C99.6 56.3 100 55.5 100 54.5C100 53.5 99.7 52.8 99.1 52.3C98.7 51.8 97.8 51.4 96.6 51.1Z" fill="#5F6063"/>
<path d="M114.7 46.1C113 46.1 111.6 46.7 110.4 47.8C109.2 48.9 108.7 50.3 108.7 52C108.7 53.7 109.3 55.1 110.4 56.2C111.6 57.3 113 57.9 114.7 57.9C116.4 57.9 117.8 57.3 119 56.2C120.2 55.1 120.7 53.7 120.7 52C120.7 50.3 120.1 48.9 119 47.8C117.8 46.7 116.4 46.1 114.7 46.1ZM117.5 54.9C116.7 55.7 115.8 56.1 114.6 56.1C113.4 56.1 112.5 55.7 111.7 54.9C110.9 54.1 110.5 53.1 110.5 52C110.5 50.9 110.9 49.9 111.7 49.1C112.5 48.3 113.4 47.9 114.6 47.9C115.8 47.9 116.7 48.3 117.5 49.1C118.3 49.9 118.7 50.9 118.7 52C118.7 53.2 118.3 54.1 117.5 54.9Z" fill="#5F6063"/>
<path d="M135.4 48C136 48 136.6 48.1 137.1 48.3C137.6 48.5 138.1 48.9 138.6 49.4L139.8 48.1C138.6 46.8 137.1 46.1 135.4 46.1C133.7 46.1 132.2 46.7 131 47.8C129.8 48.9 129.3 50.3 129.3 52C129.3 53.7 129.9 55.1 131 56.2C132.1 57.3 133.6 57.9 135.3 57.9C137 57.9 138.5 57.2 139.7 55.9L138.5 54.6C138 55.1 137.5 55.4 137 55.7C136.5 55.9 135.9 56 135.3 56C134.2 56 133.3 55.6 132.5 54.8C131.7 54 131.3 53.1 131.3 51.9C131.3 50.7 131.7 49.8 132.5 49.1C133.2 48.4 134.2 48 135.4 48Z" fill="#5F6063"/>
<path d="M150.5 46.4H148.6V57.8H150.5V46.4Z" fill="#5F6063"/>
<path d="M162.8 52.9H168.3V51.2H162.8V48.2H168.9V46.4H160.9V57.8H169.1V56H162.8V52.9Z" fill="#5F6063"/>
<path d="M177.7 48.2H181.2V57.8H183.1V48.2H186.6V46.4H177.7V48.2Z" fill="#5F6063"/>
<path d="M198.1 51.6L195 46.4H192.9L197.1 53.3V57.8H199.1V53.3L203.3 46.4H201.2L198.1 51.6Z" fill="#5F6063"/>
<path d="M24.7 1.7H17.7V16.8H24.7V1.7Z" fill="#E85B30"/>
<path d="M42.4 18.4C42.4 16.8 42.3 14.9 42.5 13.1C42.9 10.3 44 7.9 47.6 7.9C50.5 7.9 52.8 10.2 52.9 13.1V16.7H59.9V13C59.9 6.2 54.4 0.8 47.6 0.8C40.8 0.8 35.3 6.3 35.3 13.1V34.4H42.3C42.4 29.1 42.5 23.8 42.4 18.4Z" fill="#E85B30"/>
<path d="M60 27.7H53V61H60V27.7Z" fill="#E85B30"/>
<path d="M51.2 36.1H26.6V43.1H51.2V36.1Z" fill="#5F6063"/>
<path d="M74 18.7H44.2V25.7H74V18.7Z" fill="#5F6063"/>
<path d="M73.9 36.1H61.8V43.1H73.9V36.1Z" fill="#5F6063"/>
<path d="M42.3 45.2H35.3V48.9C35.3 51.8 32.9 54.1 30.1 54.1C27.2 54.1 24.9 51.8 24.9 48.9V27.5H17.9V49.3C18 55.9 23.4 61.1 30 61.1C36.8 61.1 42.3 55.6 42.3 48.8V45.2Z" fill="#E85B30"/>
<path d="M12.2 36.1C9.3 36.1 7 33.7 7 30.9C7 28 9.3 25.7 12.2 25.7H33.5V18.7H12.2C5.5 18.6 0 24.1 0 30.9C0 37.7 5.5 43.2 12.3 43.2H15.9V36.2L12.2 36.1Z" fill="#5F6063"/>
</svg>
